<svg width="169" height="180" viewBox="0 0 169 180" fill="none" xmlns="http://www.w3.org/2000/svg">
<path fill-rule="evenodd" clip-rule="evenodd" d="M137.333 14.6396C152.442 19.3511 169 22.9575 169 22.9575V180H158.632V31.0172C158.632 31.0172 144.106 27.8444 130.851 23.6993C126.194 22.2431 122.819 20.6625 119.476 19.0968C115.93 17.4363 112.42 15.7927 107.456 14.3323C101.822 12.6748 95.4663 10.8197 85.2312 10.8197C74.996 10.8197 66.223 11.6978 60.0819 14.3323C58.0108 15.2207 55.9255 16.2379 53.7281 17.3098C49.4096 19.4162 44.6587 21.7335 38.7342 23.6993C25.1281 28.2138 10.3682 31.0172 10.3682 31.0172V180H0V22.9575C0 22.9575 16.8243 19.771 32.3333 14.6396C39.0864 12.4052 44.5018 9.77116 49.4242 7.37692C51.9289 6.15864 54.306 5.00245 56.6667 3.99261C63.6667 0.998152 73.6667 0 85.3333 0C97 0 104.245 2.10861 110.667 3.99261C116.325 5.65258 120.326 7.5208 124.367 9.4082C128.178 11.1878 132.026 12.9844 137.333 14.6396Z" fill="black"/>
</svg>
